<svg xmlns="http://www.w3.org/2000/svg" width="131" height="30" viewBox="0 0 131 30" fill="none">
    <g clip-path="url(#clip0_3053_51)">
        <path
            d="M14.7415 21.2231C11.2695 21.2231 8.45502 18.4083 8.45502 14.9366C8.45502 11.4645 11.2695 8.64972 14.7415 8.64972C18.2136 8.64972 21.028 11.4645 21.028 14.9366C21.028 18.4083 18.2136 21.2231 14.7415 21.2231ZM14.7415 0.195051C6.60012 0.195051 0 6.79482 0 14.9366C0 23.078 6.60012 29.6781 14.7415 29.6781C22.8829 29.6781 29.483 23.078 29.483 14.9366C29.483 6.79482 22.8829 0.195051 14.7415 0.195051Z"
            fill="#F1F1F1" />
        <path
            d="M31.4725 26.9449C31.4725 28.5243 30.1923 29.8046 28.6129 29.8046C27.0335 29.8046 25.7529 28.5243 25.7529 26.9449C25.7529 25.3656 27.0335 24.0853 28.6129 24.0853C30.1923 24.0853 31.4725 25.3656 31.4725 26.9449Z"
            fill="#F1F1F1" />
        <path
            d="M51.8535 20.7618H46.179V15.0525V9.34275H51.8535C54.9872 9.34275 57.5279 11.899 57.5279 15.0525C57.5279 18.2056 54.9872 20.7618 51.8535 20.7618ZM52.1438 0.89337H37.9844V15.0525V29.2115H52.1438C59.9635 29.2115 66.3029 22.8721 66.3029 15.0525C66.3029 7.23243 59.9635 0.89337 52.1438 0.89337Z"
            fill="#F1F1F1" />
        <path
            d="M68.3885 26.9449C68.3885 28.5243 67.1083 29.8046 65.5289 29.8046C63.9495 29.8046 62.6689 28.5243 62.6689 26.9449C62.6689 25.3656 63.9495 24.0853 65.5289 24.0853C67.1083 24.0853 68.3885 25.3656 68.3885 26.9449Z"
            fill="#F1F1F1" />
        <path d="M84.4292 29.2116H74.5176V0.838745H84.4292V29.2116Z" fill="#F1F1F1" />
        <path
            d="M91.0985 26.9449C91.0985 28.5243 89.8183 29.8046 88.2389 29.8046C86.6595 29.8046 85.3789 28.5243 85.3789 26.9449C85.3789 25.3656 86.6595 24.0853 88.2389 24.0853C89.8183 24.0853 91.0985 25.3656 91.0985 26.9449Z"
            fill="#F1F1F1" />
        <path
            d="M127.492 24.0852C125.913 24.0852 124.633 25.3655 124.633 26.9448C124.633 28.5242 125.913 29.8048 127.492 29.8048C129.072 29.8048 130.352 28.5242 130.352 26.9448C130.352 25.3655 129.072 24.0852 127.492 24.0852Z"
            fill="#F1F1F1" />
        <path
            d="M115.165 17.4292H109.349H103.746V15.145C103.746 12.2113 106.302 9.83283 109.456 9.83283C112.609 9.83283 115.165 12.2113 115.165 15.145V17.4292ZM109.456 0.86981C101.636 0.86981 95.2969 7.20923 95.2969 15.0289V29.188H103.748V25.578H109.349H115.124V29.188H123.615V15.0289C123.615 7.20923 117.276 0.86981 109.456 0.86981Z"
            fill="#F1F1F1" />
    </g>
    <defs>
        <clipPath id="clip0_3053_51">
            <rect width="130.352" height="29.6098" fill="white" transform="translate(0 0.195068)" />
        </clipPath>
    </defs>
</svg>